# xmcd
#
# Track frame offsets: 
#        150
#        12066
#        34140
#        63193
#        92895
#        117158
#        133811
#        152466
#        172125
#        193410
#        202623
#        224148
#        227952
#
# Disc length: 3223 seconds
#
# Revision: 0
# Processed by: cddbd v1.5.2PL0 Copyright (c) Steve Scherf et al.
# Submitted via: ExactAudioCopy v0.99pb4
#
DISCID=b80c950d
DTITLE=And You Will Know Us by the Trail of Dead - The Century of S
DTITLE=elf
DYEAR=2009
DGENRE=
TTITLE0=Giants Causeway
TTITLE1=Far Pavillions
TTITLE2=Isis Unveiled
TTITLE3=Halcyon Days
TTITLE4=Bells of Creation
TTITLE5=Fields of Coal
TTITLE6=Inland Sea
TTITLE7=Luna Park
TTITLE8=Pictures of an Only Child
TTITLE9=Insatiable (One)
TTITLE10=Ascending
TTITLE11=An August Theme
TTITLE12=Insatiable (Two)
EXTD=
EXTT0=
EXTT1=
EXTT2=
EXTT3=
EXTT4=
EXTT5=
EXTT6=
EXTT7=
EXTT8=
EXTT9=
EXTT10=
EXTT11=
EXTT12=
PLAYORDER=
